<svg width="48" height="48" viewBox="0 0 48 48" fill="none" xmlns="http://www.w3.org/2000/svg">
<mask id="path-1-inside-1_123_63" fill="white">
<path fill-rule="evenodd" clip-rule="evenodd" d="M17.0979 9C16.4141 9 15.7777 9.34935 15.4106 9.92625L12.1818 15H8C3.58172 15 0 18.5817 0 23V37C0 41.4183 3.58172 45 8 45H40C44.4183 45 48 41.4183 48 37V23C48 18.5817 44.4183 15 40 15H34.0455L31.0806 9.98254C30.7208 9.3736 30.0661 9 29.3587 9H17.0979Z"/>
</mask>
<path d="M15.4106 9.92625L12.8796 8.31562V8.31562L15.4106 9.92625ZM12.1818 15V18H13.8287L14.7128 16.6106L12.1818 15ZM34.0455 15L31.4627 16.5262L32.3336 18H34.0455V15ZM31.0806 9.98254L33.6634 8.45635V8.45635L31.0806 9.98254ZM17.9416 11.5369C17.758 11.8253 17.4398 12 17.0979 12V6C15.3884 6 13.7974 6.87339 12.8796 8.31562L17.9416 11.5369ZM14.7128 16.6106L17.9416 11.5369L12.8796 8.31562L9.65083 13.3894L14.7128 16.6106ZM8 18H12.1818V12H8V18ZM3 23C3 20.2386 5.23858 18 8 18V12C1.92487 12 -3 16.9249 -3 23H3ZM3 37V23H-3V37H3ZM8 42C5.23858 42 3 39.7614 3 37H-3C-3 43.0751 1.92487 48 8 48V42ZM40 42H8V48H40V42ZM45 37C45 39.7614 42.7614 42 40 42V48C46.0751 48 51 43.0751 51 37H45ZM45 23V37H51V23H45ZM40 18C42.7614 18 45 20.2386 45 23H51C51 16.9249 46.0751 12 40 12V18ZM34.0455 18H40V12H34.0455V18ZM28.4978 11.5087L31.4627 16.5262L36.6282 13.4738L33.6634 8.45635L28.4978 11.5087ZM29.3587 12C29.0051 12 28.6777 11.8132 28.4978 11.5087L33.6634 8.45635C32.7638 6.93399 31.127 6 29.3587 6V12ZM17.0979 12H29.3587V6H17.0979V12Z" fill="#152C5B" mask="url(#path-1-inside-1_123_63)"/>
<circle cx="21" cy="31" r="6.5" stroke="#FF498B" stroke-width="3"/>
<path d="M38.7453 23L30 23" stroke="#152C5B" stroke-width="3" stroke-linecap="round" stroke-linejoin="round"/>
</svg>
