<svg width="48" height="48" viewBox="0 0 48 48" fill="none" xmlns="http://www.w3.org/2000/svg">
<g clip-path="url(#clip0_123_40)">
<rect width="48" height="48" fill="white"/>
<path d="M26.5 14.0979C26.5 16.5582 25.285 22.8342 22.9355 28.5117C21.7668 31.3359 20.3616 33.9003 18.7711 35.7334C17.172 37.5764 15.5509 38.5 13.9284 38.5C12.324 38.5 10.7152 37.5621 9.12393 35.6669C7.54354 33.7845 6.1532 31.1523 5.00044 28.2581C2.6845 22.4434 1.5 16.0245 1.5 13.5536C1.5 8.89465 5.86013 2.5 13.9284 2.5C21.9436 2.5 26.5 9.38253 26.5 14.0979Z" stroke="#152C5B" stroke-width="3"/>
<path d="M18.5 14C18.5 16.4853 16.4853 18.5 14 18.5C11.5147 18.5 9.5 16.4853 9.5 14C9.5 11.5147 11.5147 9.49998 14 9.49998C16.4853 9.49998 18.5 11.5147 18.5 14Z" stroke="#FF498B" stroke-width="3"/>
<path d="M27.5 40.5C27.5 40.8983 27.3223 41.3961 26.7499 41.9797C26.1692 42.5718 25.2492 43.1755 23.9775 43.7155C21.4389 44.7933 17.7742 45.5 13.5 45.5C9.22368 45.5 5.83268 44.7926 3.57065 43.7369C1.23669 42.6477 0.5 41.4116 0.5 40.5C0.5 39.5884 1.23669 38.3523 3.57065 37.2631C5.83268 36.2074 9.22368 35.5 13.5 35.5C17.7742 35.5 21.4389 36.2067 23.9775 37.2845C25.2492 37.8245 26.1692 38.4282 26.7499 39.0203C27.3223 39.6039 27.5 40.1017 27.5 40.5Z" stroke="#152C5B" stroke-width="3"/>
</g>
<defs>
<clipPath id="clip0_123_40">
<rect width="48" height="48" fill="white"/>
</clipPath>
</defs>
</svg>
