<svg width="32" height="31" viewBox="0 0 32 31" fill="none" xmlns="http://www.w3.org/2000/svg">
<path d="M14.8888 0.841814C15.1792 -0.0978638 16.5093 -0.0978657 16.7997 0.841812L19.6986 10.2231C19.8281 10.6421 20.2155 10.9278 20.6541 10.9278H30.1379C31.0945 10.9278 31.5051 12.1418 30.745 12.7225L22.9875 18.6487C22.6544 18.9031 22.5154 19.3382 22.6391 19.7386L25.5816 29.2608C25.8691 30.191 24.7928 30.9418 24.0191 30.3507L16.4513 24.5694C16.0929 24.2956 15.5956 24.2956 15.2372 24.5694L7.66934 30.3507C6.89565 30.9418 5.81941 30.191 6.10686 29.2608L9.04938 19.7386C9.17311 19.3382 9.03405 18.9031 8.70102 18.6487L0.943469 12.7225C0.183356 12.1418 0.594 10.9278 1.55053 10.9278H11.0344C11.473 10.9278 11.8604 10.6421 11.9898 10.2231L14.8888 0.841814Z" fill="#FFCC47"/>
</svg>
